<?xml version="1.0" encoding="utf-8"?>
<!-- Generator: Adobe Illustrator 21.1.0, SVG Export Plug-In . SVG Version: 6.00 Build 0)  -->
<svg version="1.1" id="Layer_1" xmlns="http://www.w3.org/2000/svg" xmlns:xlink="http://www.w3.org/1999/xlink" x="0px" y="0px"
	 viewBox="0 0 205 205" style="enable-background:new 0 0 205 205;" xml:space="preserve">
<style type="text/css">
	.st0{fill:#FFFFFF;}
	.st1{fill:#5DB9FF;}
</style>
<g>
	<circle class="st0" cx="103" cy="101" r="93.8"/>
	<path class="st1" d="M103,197c-52.9,0-96-43.1-96-96S50.1,5,103,5s96,43.1,96,96S155.9,197,103,197z M103,9.4
		c-50.5,0-91.6,41.1-91.6,91.6s41.1,91.6,91.6,91.6s91.6-41.1,91.6-91.6S153.5,9.4,103,9.4z"/>
</g>
<g>
	<circle class="st1" cx="102.5" cy="101.1" r="35.8"/>
</g>
<g>
	<path class="st1" d="M164.9,102c-19.5-23.8-40.3-35.9-61.7-35.9c-0.5,0-0.9,0-1.4,0c-35.8,0.9-61.8,35.5-62,35.8l-3.6-2.6
		c1.1-1.5,27.5-36.6,65.5-37.6c23.4-0.6,45.8,12,66.7,37.5L164.9,102z"/>
</g>
<g>
	<path class="st1" d="M101.5,140.5c-22.9,0-44.9-13-65.3-38.7l3.5-2.7c19.9,25.1,41.2,37.5,63.1,37c35.9-0.8,61.9-36.2,62.1-36.6
		l3.6,2.6c-1.1,1.5-27.6,37.5-65.6,38.4C102.4,140.5,101.9,140.5,101.5,140.5z"/>
</g>
<g>
	<path class="st0" d="M103.1,120.3c-10.6,0-19.3-8.7-19.3-19.3c0-10.6,8.7-19.3,19.3-19.3s19.3,8.7,19.3,19.3
		C122.4,111.6,113.7,120.3,103.1,120.3z M103.1,88.3c-7,0-12.7,5.7-12.7,12.7c0,7,5.7,12.7,12.7,12.7c7,0,12.7-5.7,12.7-12.7
		C115.8,94,110.1,88.3,103.1,88.3z"/>
</g>
<g>
	<rect x="97.2" y="33" class="st1" width="4.4" height="24.9"/>
</g>
<g>
	<path class="st1" d="M103,186.7c-47.3,0-85.7-38.4-85.7-85.7S55.7,15.3,103,15.3s85.7,38.4,85.7,85.7S150.3,186.7,103,186.7z
		 M103,18.2c-45.6,0-82.8,37.1-82.8,82.8s37.1,82.8,82.8,82.8s82.8-37.1,82.8-82.8S148.6,18.2,103,18.2z"/>
</g>
<g>
	<rect x="97.2" y="144.6" class="st1" width="4.4" height="26.6"/>
</g>
<g>
	<rect x="109.7" y="33" class="st1" width="4.4" height="24.9"/>
</g>
<g>
	<rect x="108.3" y="144.6" class="st1" width="4.4" height="26.6"/>
</g>
</svg>
